<?xml version="1.0" encoding="UTF-8"?>
<svg id="Objects" xmlns="http://www.w3.org/2000/svg" viewBox="0 0 198.702 331.581">
  <defs>
    <style>
      .cls-1 {
        fill: #ffa943;
      }

      .cls-1, .cls-2, .cls-3, .cls-4, .cls-5, .cls-6, .cls-7 {
        stroke-width: 0px;
      }

      .cls-2 {
        fill: #e9832e;
      }

      .cls-3 {
        fill: #ffd99a;
      }

      .cls-4 {
        fill: #e5e0b7;
      }

      .cls-5 {
        fill: #fffee6;
      }

      .cls-6 {
        fill: #ee8b8c;
      }

      .cls-7 {
        fill: #400205;
      }
    </style>
  </defs>
  <path class="cls-1" d="m49.615,49.207c.083-2.827.238-5.646.4-8.47.09-1.572.148-3.151.272-4.721.071-.908.135-1.894.369-2.809-.162-.451-.283-.905-.262-1.346.027-.549.606-.925,1.105-.634,1.049.61,1.674,1.989,2.252,3.013.618,1.093,1.245,2.182,1.85,3.282.605,1.101,1.209,2.202,1.813,3.304.621,1.132,1.408,2.279,1.773,3.522.047.16.045.327.018.489.624-.101,1.255-.182,1.899-.219-.123-.141-.236-.302-.325-.507-1.056-2.427-1.756-5.009-2.685-7.487-.897-2.393-1.89-4.744-2.93-7.078-1.043-2.342-2.165-4.648-3.366-6.913-.549-1.037-1.226-2.122-1.832-3.238-.453,1.14-1.172,2.244-1.649,3.241-.993,2.072-1.874,4.193-2.672,6.347-1.575,4.252-2.754,8.659-3.618,13.109-.895,4.611-1.324,9.301-1.322,13.998,0,1.587.102,3.167.222,4.746,1.909-4.456,4.901-8.625,8.688-11.629Z"/>
  <path class="cls-1" d="m80.747,32.055c-1.106,1.244-2.084,2.479-2.847,3.971-.201.393-.385.795-.56,1.2.212-.12.431-.241.629-.359,1.496-.896,3.003-1.766,4.522-2.622.315-.177.629-.36.942-.54.258-2.533.54-5.043,1.125-7.526.611-2.593,1.46-5.126,2.396-7.619.192-.512.612-.902,1.185-.902.487,0,1.113.378,1.185.902.322,2.349.628,4.7.922,7.053l.43,3.438c.052.417.127.852.198,1.29.35-.022.701-.014,1.05.055.294.058.514.409.474.711.25.259.364.647.285,1.004-.274,1.235-.52,2.479-.824,3.706-.154.621-.285,1.296-.516,1.893-.041.105-.095.222-.156.34,2.157-.654,4.255-1.353,6.44-1.817-1.414-10.789-4.394-21.167-9.337-30.829-6.125,8.623-11.419,17.867-16.21,27.296,2-1.405,4.117-2.636,6.357-3.638,1.954-.874,3.804,1.314,2.31,2.994Z"/>
  <path class="cls-6" d="m87.574,24.128c-.276.835-.554,1.669-.819,2.507-.657,2.076-1.325,4.157-1.903,6.259.727-.415,1.457-.826,2.198-1.211.437-.227.898-.459,1.372-.669-.058-.566-.099-1.134-.169-1.665-.151-1.146-.302-2.292-.453-3.438-.078-.594-.149-1.189-.226-1.783Z"/>
  <path class="cls-6" d="m53.471,38.768c-.48-.898-.945-1.806-1.413-2.711-.007.102-.013.209-.019.308-.09,1.516-.207,3.031-.31,4.546-.163,2.388-.34,4.771-.552,7.153,1.827-1.222,3.812-2.177,5.93-2.774-.764-.96-1.279-2.124-1.856-3.2-.593-1.108-1.188-2.215-1.781-3.323Z"/>
  <path class="cls-1" d="m141.205,220.534c.487-2.515.86-5.03,1.008-7.589.279-4.825.006-9.808-1.204-14.5-1.086-4.209-3.12-8.526-6.733-11.141-2.938-2.127-6.652-3.095-10.152-2.23-.051,1.957-.117,3.912-.214,5.866-.318,6.38-.749,12.756-1.303,19.12-.283,3.244-.574,6.488-.887,9.729-.144,1.496-.299,2.99-.454,4.485-.013.126-.019.256-.03.384,6.313.005,12.627.282,18.923.843.168-1.693.753-3.452,1.046-4.966Z"/>
  <path class="cls-1" d="m120.02,149.819c-.205,2.799-.953,5.742-.543,8.529.06.338.265.555.519.664-.229,4.126-.495,8.263-.471,12.413.036,6.381.012,12.763,0,19.144-.012,6.249-.169,12.498-.446,18.747-.145,3.245-.35,6.478-.603,9.723-.109,1.496-.229,2.992-.362,4.488-.036.374-.084.76-.145,1.146-2.099.036-4.21.097-6.309.193.012-.844-.024-1.701-.012-2.533.024-2.521.097-5.042.048-7.552-.109-5.175-.169-10.326-.193-15.501-.024-8.155-.133-16.298-.289-24.453,1.11-2.57.736-6.213.675-8.879-.084-3.595-.277-7.178-.543-10.761-.482-6.43-1.496-12.691-2.642-19,.555.663,1.122,1.339,1.617,2.075,1.037,1.52,3.329.579,2.943-1.242-.965-4.669-3.1-8.879-5.803-12.727-.446-.639-.905-1.267-1.375-1.882.507.157,1.013.35,1.472.567.784.386,2.003.121,2.196-.893.253-1.375.133-2.69-.229-3.921.41-.048.832-.109,1.242-.205.591-.133,1.182-.253,1.773-.41.555-.145,1.098-.302,1.629-.507.084-.036.157-.072.229-.109.519.458,1.025.929,1.52,1.436.579.603,1.146,1.206,1.665,1.846.265.302.507.615.736.929.108.145.193.29.289.434-.615,0-1.242-.012-1.834.048-.808.072-1.641,1.001-1.037,1.809,1.701,2.304,2.352,5.766,2.931,8.517.639,3.04,1.037,6.116,1.291,9.192.241,2.883.253,5.79.06,8.674Z"/>
  <path class="cls-5" d="m151.167,79.972c-.688-.253-1.339-.567-1.834-1.049-.664.133-1.315.217-1.93.277-.7.072-1.387.096-2.087.085-7.226,2.232-15.562,3.112-21.895-1.798-2.847-2.208-4.789-5.525-6.092-8.83-.808-2.039-1.267-4.295-1.689-6.442-.29-1.436-.543-2.871-.615-4.319-.121-.06-.253-.145-.338-.289-2.461-3.51-8.034-3.354-11.822-3.655-5.018-.386-10.193-.531-15.152.458-4.319.869-8.613,2.666-11.701,5.923-2.69,2.847-3.752,6.333-4.512,10,.253,1.339.338,2.726.639,4.041.398,1.749,1.001,3.438,1.858,5.018,1.351,2.533,4.56,5.127,3.909,8.276-.627,3.028-4.596,5.115-7.081,6.406-.47.241-.965.482-1.46.712-1.146.543-2.328,1.037-3.51,1.387-.796.241-1.592.374-2.401.483,3.884,1.351,7.926,2.183,12.039,2.461.953.06,1.484,1.17.784,1.906-1.689,1.785-3.136,3.776-5.03,5.392-.579.507-1.206,1.062-1.87,1.58,2.135.507,4.234,1.11,6.333,1.785,3.595,1.158,7.214,2.389,10.64,3.969,1.11.519,1.05,2.026.362,2.811-1.315,1.508-2.618,3.028-3.957,4.5-1.146,1.242-2.316,2.907-3.8,3.812-.338,1.665-.688,3.342-1.038,5.006-.446,2.268-.881,4.548-1.182,6.84-.507,3.884-.229,7.745-.278,11.653-.048,3.969.205,7.938.567,11.882.181,1.954.434,3.908.519,5.863.085,1.749.41,3.571.072,5.284-.012.096-.072.169-.121.229.048.434.096.856.157,1.279.121.82.181,1.616.205,2.449.024.724.024,1.508-.241,2.196-.024.06-.072.097-.109.145,1.906,7.757,3.619,15.55,5.392,23.343,1.219,5.368,2.364,10.749,3.559,16.129.591,2.69,1.17,5.38,1.665,8.095.096.591.229,1.255.35,1.942,2.883-.446,5.766-.856,8.662-1.182,3.378-.398,6.78-.7,10.169-.917,0-1.062.085-2.123.109-3.149.06-2.521.096-5.042.241-7.564.314-5.03.519-10.073.724-15.115.314-7.962.712-15.924,1.134-23.886-.012-.036-.048-.048-.06-.072-1.375-2.606-.977-6.502-1.037-9.373-.072-3.462-.157-6.925-.277-10.387-.241-6.912-.314-13.837-.676-20.725-.012-.06.012-.096.012-.145-.229-.302-.47-.603-.7-.929-.458-.651.302-1.411.977-1.267.35.072.675.193.989.314-.893-2.702-2.015-5.332-3.486-7.757-.688-1.146-1.46-2.244-2.316-3.281-.434-.531-.386-1.58.458-1.725,1.243-.205,2.352-.302,3.498-.181-.145-1.568-.82-3.161-2.027-4.077-.736-.555-.989-1.797,0-2.292,1.617-.832,3.317-1.496,5.006-2.208,1.749-.724,3.426-1.472,5.32-1.785.133-.024.278-.024.434-.012.362-.157.736-.314,1.098-.471,2.268-1.013,4.536-2.003,6.755-3.112,4.246-2.123,8.324-4.584,12.329-7.142,3.776-2.425,7.588-5.018,10.592-8.396.953-1.074,1.809-2.268,2.545-3.523.374-.639.724-1.303,1.025-1.978.676-1.496,1.013-3.233,1.737-4.729-.181-.06-.362-.109-.543-.169Zm-43.223-6.104c.012-.145.024-.277.06-.41,0-.036.012-.084.012-.121.024-.326.097-.579.29-.832.145-.193.326-.326.543-.422.277-.109.591-.145.893-.06.109.048.217.085.326.133.085.072.181.145.278.217.072.097.133.181.217.278.109.096.205.217.302.338.386.446.724.917,1.001,1.423.193.374.374.76.519,1.146.036.121.072.253.109.374.048.229.084.47.084.7.012.229-.036.446-.109.651-.012.024-.012.036-.012.06-.072.193-.157.374-.241.555-.217.495-.76.808-1.255.965-.482.157-1.182.06-1.616-.205-.133-.097-.302-.217-.434-.338-.048-.036-.096-.06-.145-.109-.302-.277-.482-.663-.615-1.049-.036-.109-.084-.217-.108-.338-.096-.41-.145-.869-.169-1.291-.024-.253-.036-.495-.024-.76,0-.302.048-.603.097-.905Zm-24.115,74.359c-1.11-1.797-1.954-3.764-2.473-5.802-.531-2.075-.736-4.222-.06-6.273.145-.41.856-.507.941,0,.314,1.93.374,3.897.724,5.827.35,1.966.989,3.86,1.918,5.634.35.7-.639,1.279-1.049.615Zm10.688,3.583c-.856-1.665-1.701-3.342-2.497-5.043-.434-.893-.869-1.785-1.255-2.702-.338-.844-.627-1.749-.555-2.666.024-.422.531-.869.953-.555,1.532,1.17,2.147,3.136,2.895,4.837.784,1.786,1.52,3.583,2.232,5.38.422,1.037-1.279,1.713-1.773.748Zm9.06-3.124c-.265,2.871-.724,5.839-2.244,8.336-.35.579-1.315.362-1.291-.35.072-2.799.784-5.525,1.146-8.287.374-2.787.639-5.646.603-8.456-.012-.977,1.351-.905,1.472,0,.386,2.931.591,5.802.314,8.758Z"/>
  <path class="cls-5" d="m193.992,282.854c-1.037,9.795-4.668,19.398-9.699,27.818-2.087,3.474-4.536,6.936-7.431,9.904-3.028,3.124-6.526,5.706-10.568,7.226,1.158-6.49-2.183-13.402-7.322-17.371-6.9-5.356-16.165-6.357-24.609-6.49-3.269-.06-6.514.048-9.759.241-.169-.121-.362-.205-.591-.229-4.186-.458-8.312-.652-12.413-1.725-2.835-.736-5.549-1.761-8.143-3.064,4.126-2.316,8.396-4.307,12.872-5.923,2.775-1.001,5.609-1.834,8.456-2.594,2.835-.736,5.73-1.242,8.42-2.389.748-.326.555-1.641-.229-1.785-1.122-.193-2.232-.241-3.354-.205-.084-.048-.157-.096-.253-.121-5.187-1.363-14.669-4.27-12.944-11.545.483-2.051,1.592-3.595,3.064-4.777,3.281-2.654,8.348-3.51,12.22-4.186,2.316-.398,1.87-3.619,0-4.258-2.111-.736-5.296-1.822-6.237-4.077-1.194-2.883,2.413-5.018,4.487-6.116,3.33-1.761,6.852-3.233,10.35-4.62,3.486-1.375,7.31-2.401,10.531-4.343.808-.483.663-1.773-.145-2.087.35-.398.458-1.013-.036-1.399-1.858-1.508-4.608-2.232-6.804-3.1-2.304-.917-4.596-1.834-6.912-2.714-1.423-.555-2.847-1.134-4.27-1.701,14.259.096,28.578,2.208,40.895,9.807,6.635,4.09,12.389,9.663,16.105,16.551,4.162,7.721,5.235,16.635,4.319,25.273Z"/>
  <path class="cls-1" d="m139.478,78.681c-5.284.615-10.628.036-14.898-3.523-2.63-2.196-4.27-4.898-5.646-7.998-1.375-3.112-1.677-6.526-2.714-9.711.048-.145.072-.314.024-.495-1.146-4.62-6.466-5.453-10.483-5.983-6.345-.832-12.751-1.641-19.108-.422-5.272,1.013-10.556,3.426-14.09,7.588-2.883,3.378-5.115,8.227-3.836,12.642-.869,4.765,1.689,10.531,4.307,14.114.29.398,1.074,1.182,1.049,1.713-.024.724-.856,1.182-1.375,1.568-1.218.917-2.521,1.749-3.836,2.557-1.122.688-2.268,1.291-3.438,1.882-.205.096-.398.205-.603.302-1.653.845-3.233,1.894-4.982,2.509-.603.217-.893,1.182-.205,1.508,4.21,2.015,8.601,3.378,13.173,4.077-1.291.977-2.678,1.87-3.993,2.811-1.472,1.049-3.124,1.966-4.391,3.269-.603.072-.941.591-.856,1.086-.422,1.074.82,2.099,1.87,1.906.338-.06.675-.169,1.001-.302,2.726,1.049,5.477,2.039,8.215,3.064,2.714,1.013,5.38,2.147,8.058,3.257-.748,1.062-1.496,2.135-2.208,3.221-.832,1.242-1.954,2.594-2.557,4.029-.241.024-.458.157-.591.458-.856,1.978-1.544,4.005-2.123,6.056-.519,1.834-.929,3.691-1.291,5.573-.796,4.174-1.809,8.324-1.906,12.582-.097,4.174.096,8.324.724,12.449.386,2.497.905,5.513,1.99,8.094-.278,0-.567.169-.519.495,1.423,10.785,3.378,21.437,5.235,32.149.941,5.441,1.954,10.857,2.931,16.298.47,2.594.977,5.175,1.496,7.757.145.76.302,1.677.507,2.618-2.907.507-5.79,1.074-8.662,1.737-.7.157-1.399.338-2.099.507,1.194-3.402,1.568-7.202,1.87-10.724.362-4.065.338-8.239-.567-12.232-.736-3.233-2.075-6.442-3.933-9.289-.036-.109-.072-.217-.121-.326-.869-2.292-1.749-4.572-2.666-6.84-1.773-4.403-3.836-8.613-5.827-12.908-.253-.555-1.146-.157-.977.41,1.351,4.608,2.582,9.18,4.15,13.728-.712-.543-1.46-1.025-2.232-1.472-5.887-3.281-13.053-3.04-19.169-.555.277-.495.555-1.001.82-1.496,1.532-2.883,2.883-5.839,4.21-8.806,2.75-6.152,5.187-12.461,7.431-18.807,2.244-6.369,4.258-12.799,5.983-19.326.832-3.161,1.568-6.333,2.22-9.53.205-1.013.362-2.027.482-3.04.217-1.653.35-3.293.483-4.958.41-.109.808-.265,1.158-.495.483-.326.688-1.086.193-1.532-.386-.338-.82-.579-1.291-.76-.314-.603-1.182-.76-1.809-.41-.881-.121-1.797-.145-2.63-.229-1.99-.217-3.969-.471-5.935-.796-1.966-.314-3.921-.688-5.863-1.122-1.049-.241-2.087-.495-3.136-.772-.06-.012-.121-.024-.193-.036.121-.121.241-.229.362-.35.929-.893,1.93-1.894,2.28-3.173.181-.627-.338-1.508-1.086-1.424-.338.048-.663.121-.965.229-.869-.47-1.797-.82-2.702-1.206-1.327-.555-2.666-1.074-3.981-1.653-1.013-.446-2.015-.905-3.028-1.375,2.799-1.037,5.368-2.738,7.045-5.042,1.809-2.485,2.063-5.754.893-8.469-.277-4.488-1.351-8.951-1.846-13.402-.579-5.332-.543-10.736.652-15.972,1.134-4.91,3.004-9.518,6.623-13.113,2.111-2.111,4.729-3.848,7.54-5.031,1.46-.615,2.967-1.074,4.487-1.363.471-.097.675-.458.675-.845.085-.048.157-.096.229-.181.555-.675,1.219-1.255,1.822-1.882.627-.675,1.267-1.351,1.918-2.003,1.279-1.291,2.63-2.521,4.029-3.667,1.086-.893,2.232-1.689,3.402-2.449-.482,1.303-.893,2.799-.627,4.138-.048.06-.109.109-.157.157-.024.036-.048.06-.072.085-.048.06-.097.096-.145.157l.06.012c-.374.7-.072,1.797.941,1.725.893-.06,1.713-.495,2.521-.857.832-.35,1.616-.796,2.413-1.206,1.556-.808,3.088-1.629,4.62-2.473,1.52-.832,3.088-1.629,4.584-2.521.374-.217.76-.458,1.134-.712-.133.41-.265.82-.398,1.23-.181.615-.41,1.267-.507,1.894-.109.651-.109,1.809.7,2.027.024.012.06.012.085.012-.145.688.217,1.496,1.074,1.399,2.895-.338,5.827-.434,8.746-.603,2.714-.169,5.477-.084,8.131.579,4.849,1.231,8.324,4.415,10.278,8.975,1.882,4.427,2.497,9.289,3.619,13.933,1.062,4.367,2.642,10.085,6.78,12.486.338.205.748.157,1.086-.012,2.654,1.592,6.225,2.159,9.192,2.69.253.048.519.084.772.133Z"/>
  <path class="cls-1" d="m121.817,259.595c.651,1.303,1.629,2.328,2.763,3.185-4.608,1.399-8.999,3.716-11.122,7.817-.652,1.255-1.086,2.666-1.255,4.282-.386,3.752,1.677,7.19,4.572,9.422,1.966,1.496,4.174,2.316,6.478,2.859-2.811.555-5.573,1.303-8.3,2.196-5.947,1.954-11.701,4.669-16.997,7.986-1.399.881-1.423,2.895,0,3.764,3.124,1.918,6.743,3.583,10.519,4.693-11.11,1.46-22.185,3.354-33.355,4.101-16.273,1.086-33.741-.47-47.892-9.253-13.728-8.517-22.052-23.873-22.607-39.93-.145-4.041.229-8.082,1.062-12.027.989-4.777,2.654-9.409,4.898-13.74,2.099-4.065,4.668-7.889,7.684-11.34,1.954-2.232,4.065-4.283,6.164-6.345-.326,1.629-.579,3.269-.796,4.922-.471,1.472-.615,2.956-.495,4.415-.06.736-.133,1.472-.181,2.22-.036.446.386.688.76.663,1.279,4.041,4.379,7.636,7.998,9.735,8.287,4.777,18.372,2.835,27.179.917,19.929-4.343,40.075-7.335,60.438-8.529,1.231-.072,2.473-.133,3.716-.193,1.665,1.049,3.812,1.689,5.489,2.364,2.28.917,4.584,1.809,6.888,2.678,2.316.856,4.644,1.629,7.009,2.352,1.605.507,3.486,1.23,5.296,1.568-3.909.688-7.781,2.401-11.364,3.848-4.029,1.641-8.517,3.185-11.919,5.971-2.787,2.28-4.343,5.971-2.63,9.397Z"/>
  <path class="cls-1" d="m30.22,233.008c1.373,1.231,2.864,2.183,4.442,2.908,6.679.713,13.578-.098,20.103-1.335,5.442-1.032,10.794-2.45,16.164-3.792-.391-3.881.312-7.866.316-11.751.004-4.023-.447-8.011-1.569-11.88-1.624-5.6-5.175-10.931-10.743-13.199-5.294-2.157-11.425-1.004-16.331,1.619-10.486,5.605-14.82,17.372-17.303,28.543.349,3.494,2.145,6.399,4.921,8.888Z"/>
  <path class="cls-7" d="m186.952,246.092c-11.108-11.966-27.017-17.274-42.911-18.861,1.138-1.784,1.628-4.182,2.037-6.072.631-2.913.966-5.932,1.099-8.907.26-5.791-.307-11.912-2.284-17.395-1.772-4.914-4.815-9.595-9.68-11.887-3.519-1.658-7.486-2.122-11.03-.771.051-3.468.039-6.937-.043-10.401-.076-3.212-.216-6.329-.704-9.506-.328-2.13-.614-4.274-.91-6.415.488-1.877.609-3.939.722-5.729.203-3.215.147-6.461-.21-9.664-.336-3.012-.955-5.978-1.854-8.872-.751-2.419-1.989-4.844-2.769-7.297,1.05.145,2.102.297,3.056.69,1.418.584,2.633-1.075,2.331-2.332-.625-2.603-3.112-5.359-5.052-7.146-1.01-.931-2.132-1.809-3.338-2.533.903-.23,1.8-.48,2.684-.727,2.602-.726,5.149-1.692,7.651-2.705,4.916-1.99,9.664-4.322,14.119-7.206,4.132-2.675,8.108-5.664,11.132-9.591,1.55-2.013,2.747-4.252,3.507-6.685.507-1.623.977-3.684.667-5.476.083-.002.164.008.247.003.462-.026.921-.089,1.378-.156.336-.049.646-.164.97-.267,1.074-.341,1.53-1.312,1.352-2.381-.24-1.442-1.693-2.704-3.043-3.117-.771-.235-1.629-.206-2.411.04-2.051-.11-4.211.35-6.263.371-2.38.023-4.755-.135-7.104-.525-2.386-.396-4.757-.912-7.122-1.417-1.281-.274-3.036-.593-4.316-1.384-.691-1.557-1.399-3.108-1.878-4.767-.74-2.563-1.208-5.197-1.648-7.824-.843-5.032-1.83-10.169-4.509-14.598-2.775-4.587-7.239-7.529-12.496-8.511-2.661-.497-5.322-.54-8.005-.259-.493-12.2-4.241-24.26-10.166-34.904-.743-1.336-2.436-1.074-3.233,0-7.761,10.464-14.096,21.722-18.171,34.111-.036.108-.038.209-.035.308-1.371,1.218-2.628,2.522-3.762,3.965-.341.434-.67.873-.988,1.32-.587-1.884-1.401-3.733-2.139-5.527-1.039-2.524-2.139-5.026-3.38-7.459-1.199-2.351-2.482-4.66-3.845-6.921-1.263-2.096-2.671-4.68-4.733-6.082-.692-.471-1.409.23-1.38.926-.012.002-.022-.001-.033.002-2.228.541-3.169,3.311-4.058,5.174-1.058,2.216-2.024,4.485-2.854,6.796-1.65,4.591-2.829,9.315-3.493,14.148-.656,4.78-.897,9.604-.653,14.423.186,3.669.512,7.513,1.561,11.083-.9,4.488-.949,9.195-.522,13.695.522,5.485,1.474,11.263,3.825,16.326-.415,1.67-1.516,3.314-2.491,4.26-2.665,2.586-6.504,3.058-9.732,4.623-1.684.816-1.159,3.414.506,3.871,1.419.39,2.723,1.112,4.073,1.693,1.408.605,2.824,1.189,4.27,1.698,1.546.543,3.267,1.191,4.998,1.578-.966.72-1.978,1.471-2.741,2.37-1.114,1.313-.305,2.984,1.319,3.184,1.029.126,2.078.524,3.093.758,1.046.242,2.096.468,3.149.68,2.029.409,4.067.785,6.111,1.11,2.041.324,4.091.599,6.145.821.508.055,1.062.133,1.631.197-.787,2.21-1.616,4.402-2.249,6.685-.87,3.137-1.763,6.27-2.669,9.397-1.845,6.366-3.85,12.695-6.068,18.94-2.182,6.143-4.621,12.179-7.148,18.186-1.266,3.009-2.597,5.991-3.88,8.993-.625,1.463-1.252,2.936-1.792,4.433-.341.945-.811,1.896-.959,2.871-3.71,2.793-6.732,6.426-8.945,10.614-1.39,2.631-2.435,5.367-3.256,8.165-6.89,3.454-12.461,9.998-16.551,16.362-4.406,6.854-7.417,14.622-8.556,22.698-2.262,16.047,2.783,32.891,13.864,44.792,11.56,12.414,28.542,17.524,45.032,18.638,19.076,1.289,37.953-2.866,56.797-5.13,5.656-.68,11.348-1.176,17.045-1.321,5.051-.129,10.251-.029,15.149,1.338,8.337,2.326,16.949,9.893,15.117,19.328-.762,1.032.065,2.879,1.677,2.508,16.742-3.86,26.279-21.748,30.787-36.93,2.551-8.592,3.508-17.739,1.947-26.606-1.449-8.229-5.319-15.793-10.994-21.906Zm-65.686-21.819c.155-1.495.309-2.989.454-4.485.313-3.241.604-6.485.887-9.729.555-6.364.985-12.74,1.303-19.12.097-1.953.163-3.909.214-5.866,3.5-.865,7.215.104,10.152,2.23,3.613,2.615,5.647,6.932,6.733,11.141,1.21,4.693,1.483,9.676,1.204,14.5-.148,2.559-.52,5.074-1.008,7.589-.293,1.514-.878,3.273-1.046,4.966-6.296-.562-12.61-.839-18.923-.843.01-.127.017-.258.03-.384Zm-5.353-105.908c.855.884,1.684,1.785,2.41,2.781.103.141.194.289.291.435-.625-.004-1.248-.01-1.841.045-.804.073-1.634,1.003-1.038,1.809,1.703,2.304,2.357,5.762,2.939,8.524.638,3.03,1.036,6.106,1.288,9.19.236,2.883.254,5.781.053,8.667-.196,2.799-.951,5.748-.533,8.535.051.339.255.55.513.658-.23,4.133-.492,8.26-.469,12.415.036,6.381.014,12.76,0,19.141-.014,6.252-.166,12.501-.45,18.746-.147,3.247-.344,6.489-.596,9.731-.116,1.496-.239,2.991-.371,4.485-.033.37-.085.756-.138,1.147-2.105.031-4.21.1-6.314.194.014-.849-.017-1.705-.008-2.535.027-2.518.095-5.039.042-7.557-.109-5.164-.163-10.326-.183-15.492-.032-8.153-.142-16.301-.291-24.451,1.107-2.572.738-6.218.674-8.881-.087-3.596-.277-7.179-.547-10.766-.484-6.428-1.496-12.684-2.642-19,.564.67,1.124,1.345,1.621,2.076,1.031,1.517,3.327.58,2.947-1.243-1.133-5.44-3.843-10.249-7.188-14.603.515.154,1.018.339,1.471.559.793.384,2.008.126,2.196-.893.253-1.368.143-2.682-.228-3.91.417-.051.832-.11,1.243-.206.592-.139,1.19-.262,1.778-.416.548-.144,1.098-.304,1.626-.507.085-.033.154-.075.234-.11.516.463,1.026.933,1.511,1.434Zm29.398-39.079c.699.005,1.398-.017,2.095-.083.614-.059,1.266-.149,1.924-.278.503.475,1.154.793,1.838,1.043.178.065.362.113.544.168-.721,1.495-1.064,3.233-1.737,4.733-.893,1.989-2.133,3.874-3.578,5.504-2.996,3.379-6.811,5.975-10.59,8.395-4.002,2.562-8.078,5.013-12.329,7.142-2.217,1.11-4.484,2.102-6.748,3.109-.364.162-.733.316-1.103.469-.149-.01-.299-.006-.435.016-1.888.308-3.566,1.06-5.321,1.79-1.687.702-3.38,1.371-5.007,2.2-.981.5-.726,1.735,0,2.289,1.211.925,1.89,2.516,2.027,4.084-1.141-.12-2.248-.022-3.493.185-.84.14-.894,1.193-.455,1.724,2.686,3.25,4.49,7.055,5.799,11.032-.315-.125-.64-.234-.985-.31-.677-.15-1.435.61-.977,1.271.222.319.46.624.7.927-.011.043-.024.085-.021.135.362,6.894.437,13.821.677,20.725.121,3.463.208,6.93.28,10.395.059,2.87-.333,6.77,1.038,9.371.015.029.047.039.066.066-.43,7.963-.824,15.925-1.142,23.895-.201,5.04-.414,10.079-.718,15.114-.152,2.515-.179,5.038-.243,7.557-.026,1.031-.113,2.096-.11,3.146-3.395.224-6.786.524-10.17.918-2.892.336-5.78.737-8.661,1.182-.116-.679-.248-1.342-.356-1.938-.49-2.709-1.069-5.409-1.665-8.096-1.191-5.375-2.333-10.761-3.553-16.129-1.772-7.796-3.487-15.585-5.393-23.338.038-.048.083-.087.109-.151.272-.681.27-1.471.244-2.198-.029-.821-.089-1.624-.203-2.438-.059-.422-.108-.854-.165-1.283.058-.067.111-.138.129-.228.333-1.717.01-3.54-.072-5.282-.092-1.964-.339-3.915-.521-5.873-.367-3.944-.623-7.912-.572-11.875.05-3.905-.226-7.776.284-11.651.525-3.985,1.419-7.914,2.219-11.851,1.481-.901,2.657-2.564,3.797-3.813,1.345-1.473,2.641-2.995,3.957-4.495.689-.786.752-2.293-.362-2.809-3.43-1.587-7.044-2.816-10.638-3.973-2.104-.677-4.206-1.279-6.333-1.783.662-.527,1.29-1.082,1.874-1.584,1.882-1.619,3.334-3.601,5.028-5.395.692-.733.17-1.843-.79-1.908-4.111-.276-8.155-1.102-12.033-2.459.804-.104,1.603-.237,2.393-.475,1.705-.515,3.398-1.292,4.977-2.108,2.484-1.284,6.449-3.374,7.076-6.403.651-3.147-2.552-5.745-3.91-8.273-.851-1.585-1.448-3.269-1.853-5.019-.304-1.315-.388-2.708-.633-4.04.749-3.67,1.817-7.157,4.512-10.006,3.077-3.253,7.378-5.047,11.701-5.917,4.957-.997,10.133-.844,15.147-.456,3.788.293,9.358.142,11.815,3.654.095.136.218.222.346.286.071,1.449.329,2.883.611,4.319.421,2.142.884,4.401,1.685,6.436,1.302,3.307,3.249,6.628,6.093,8.833,6.335,4.912,14.667,4.035,21.893,1.801ZM88.29,5.403c4.943,9.662,7.923,20.04,9.337,30.829-2.185.464-4.283,1.163-6.44,1.817.061-.119.115-.235.156-.34.231-.596.362-1.272.516-1.893.304-1.227.55-2.472.824-3.706.079-.357-.035-.746-.285-1.004.041-.302-.18-.653-.474-.711-.349-.069-.7-.077-1.05-.055-.072-.438-.146-.873-.198-1.29l-.43-3.438c-.294-2.353-.6-4.703-.922-7.053-.072-.524-.698-.902-1.185-.902-.573,0-.993.391-1.185.902-.936,2.493-1.785,5.026-2.396,7.619-.585,2.483-.867,4.993-1.125,7.526-.314.18-.628.363-.942.54-1.52.856-3.027,1.726-4.522,2.622-.198.118-.417.24-.629.359.175-.406.359-.807.56-1.2.763-1.492,1.741-2.726,2.847-3.971,1.493-1.681-.356-3.869-2.31-2.994-2.239,1.002-4.357,2.233-6.357,3.638,4.791-9.43,10.085-18.674,16.21-27.296Zm.132,25.612c-.474.21-.935.442-1.372.669-.741.385-1.471.795-2.198,1.211.578-2.102,1.246-4.183,1.903-6.259.266-.839.544-1.673.819-2.507.077.594.147,1.189.226,1.783.151,1.146.302,2.292.453,3.438.07.531.111,1.1.169,1.665Zm-47.495,29.822c-.12-1.578-.221-3.159-.222-4.746-.002-4.697.427-9.387,1.322-13.998.864-4.45,2.043-8.857,3.618-13.109.798-2.155,1.678-4.275,2.672-6.347.478-.996,1.197-2.101,1.649-3.241.607,1.116,1.283,2.201,1.832,3.238,1.201,2.265,2.323,4.572,3.366,6.913,1.04,2.334,2.033,4.685,2.93,7.078.929,2.479,1.629,5.061,2.685,7.487.089.205.202.366.325.507-.644.037-1.275.118-1.899.219.027-.163.029-.329-.018-.489-.365-1.244-1.152-2.391-1.773-3.522-.604-1.101-1.208-2.203-1.813-3.304-.605-1.1-1.232-2.189-1.85-3.282-.579-1.024-1.203-2.402-2.252-3.013-.5-.291-1.078.086-1.105.634-.022.441.1.895.262,1.346-.234.915-.297,1.9-.369,2.809-.124,1.57-.181,3.148-.272,4.721-.162,2.824-.317,5.644-.4,8.47-3.786,3.004-6.779,7.172-8.688,11.629Zm16.18-15.545c-2.119.597-4.103,1.552-5.93,2.774.212-2.382.389-4.765.552-7.153.103-1.515.22-3.03.31-4.546.006-.1.012-.207.019-.308.468.905.933,1.812,1.413,2.711.593,1.108,1.187,2.215,1.781,3.323.577,1.077,1.092,2.24,1.856,3.2Zm-12.106,143.124c1.526-2.872,2.881-5.829,4.208-8.797,2.752-6.152,5.18-12.461,7.424-18.815,2.247-6.363,4.266-12.798,5.987-19.324.832-3.153,1.568-6.325,2.219-9.521.547-2.683.747-5.33.967-8.007.41-.108.803-.258,1.153-.496.483-.327.698-1.088.197-1.526-.384-.336-.822-.577-1.293-.757-.317-.605-1.183-.762-1.802-.416-.892-.115-1.804-.149-2.634-.235-1.986-.207-3.964-.467-5.935-.785-1.968-.317-3.924-.69-5.867-1.133-1.046-.239-2.088-.492-3.127-.761-.063-.016-.131-.03-.195-.046.118-.114.238-.23.355-.343.932-.897,1.93-1.896,2.286-3.171.177-.633-.344-1.518-1.085-1.425-.34.043-.662.123-.973.229-.86-.471-1.787-.824-2.695-1.208-1.324-.56-2.666-1.078-3.983-1.653-1.014-.443-2.02-.906-3.023-1.373,2.796-1.039,5.361-2.74,7.042-5.051,1.807-2.484,2.062-5.749.89-8.458-.274-4.491-1.356-8.952-1.84-13.41-.578-5.326-.553-10.737.65-15.975,1.127-4.904,3.005-9.51,6.618-13.108,3.213-3.199,7.566-5.545,12.026-6.395.472-.09.675-.455.683-.841.077-.05.154-.1.224-.184.556-.671,1.22-1.248,1.818-1.883.634-.673,1.272-1.346,1.924-2.002,1.276-1.285,2.622-2.526,4.026-3.671,1.082-.883,2.23-1.687,3.406-2.447-.489,1.301-.898,2.806-.629,4.14-.049.054-.105.105-.152.161-.026.028-.055.053-.078.084-.042.053-.101.094-.14.149l.051.014c-.375.707-.066,1.795.949,1.729.89-.058,1.709-.501,2.522-.853.825-.358,1.615-.804,2.414-1.216,1.551-.8,3.086-1.622,4.615-2.463,1.525-.839,3.084-1.634,4.58-2.524.373-.222.758-.457,1.134-.711-.133.41-.268.82-.39,1.233-.182.612-.415,1.263-.514,1.893-.103.651-.102,1.807.698,2.027.032.009.062.004.094.009-.153.687.213,1.493,1.067,1.393,2.896-.337,5.833-.433,8.743-.604,2.715-.16,5.487-.082,8.134.587,4.847,1.225,8.328,4.416,10.278,8.978,1.889,4.419,2.497,9.288,3.624,13.927,1.061,4.365,2.637,10.091,6.773,12.492.341.198.751.156,1.083-.023,2.661,1.592,6.225,2.161,9.193,2.695.257.046.518.085.776.129-5.279.618-10.631.039-14.893-3.515-2.637-2.199-4.274-4.898-5.649-7.999-1.378-3.109-1.677-6.534-2.718-9.718.049-.144.07-.305.023-.493-1.149-4.614-6.468-5.448-10.481-5.975-6.349-.834-12.751-1.641-19.105-.423-5.281,1.012-10.56,3.416-14.096,7.578-2.878,3.387-5.111,8.239-3.837,12.643-.868,4.767,1.689,10.539,4.306,14.118.293.401,1.072,1.183,1.054,1.71-.024.725-.861,1.185-1.371,1.567-1.229.92-2.529,1.76-3.837,2.562-1.317.807-2.669,1.495-4.045,2.19-1.655.835-3.236,1.884-4.988,2.508-.603.215-.886,1.173-.196,1.502,4.211,2.011,8.6,3.379,13.175,4.078-1.301.98-2.686,1.867-3.994,2.808-1.472,1.059-3.131,1.976-4.397,3.279-.604.064-.935.58-.854,1.078-.426,1.071.822,2.105,1.873,1.907.337-.063.667-.17.993-.295,2.73,1.045,5.479,2.034,8.22,3.06,2.714,1.016,5.378,2.151,8.056,3.252-.746,1.069-1.49,2.14-2.209,3.226-.823,1.243-1.951,2.594-2.558,4.03-.237.027-.457.155-.586.456-1.616,3.748-2.649,7.624-3.416,11.629-.799,4.171-1.809,8.327-1.908,12.583-.097,4.169.098,8.326.728,12.45.382,2.501.905,5.514,1.988,8.095-.281-.007-.56.161-.516.496,1.423,10.78,3.377,21.432,5.234,32.141.943,5.44,1.96,10.866,2.933,16.301.464,2.592.974,5.173,1.491,7.754.153.764.302,1.681.508,2.615-2.9.512-5.791,1.075-8.658,1.742-.703.163-1.402.342-2.104.512,1.198-3.406,1.569-7.203,1.877-10.729.354-4.068.337-8.235-.575-12.235-.735-3.224-2.067-6.436-3.923-9.285-.042-.109-.078-.221-.12-.33-.875-2.286-1.755-4.569-2.672-6.839-1.775-4.398-3.84-8.605-5.825-12.904-.256-.554-1.141-.16-.975.411,1.344,4.603,2.574,9.185,4.144,13.724-.71-.535-1.453-1.027-2.232-1.462-5.887-3.287-13.044-3.052-19.164-.557.277-.501.556-1.002.823-1.506Zm-2.4,7.162c4.906-2.622,11.038-3.776,16.331-1.619,5.568,2.269,9.118,7.599,10.743,13.199,1.122,3.87,1.574,7.857,1.569,11.88-.004,3.885-.707,7.87-.316,11.751-5.37,1.342-10.722,2.76-16.164,3.792-6.525,1.237-13.425,2.048-20.103,1.335-1.578-.725-3.069-1.678-4.442-2.908-2.777-2.488-4.572-5.393-4.921-8.888,2.483-11.172,6.817-22.938,17.303-28.543Zm32.514,114.324c-16.267,1.082-33.737-.472-47.889-9.253-13.723-8.516-22.052-23.877-22.61-39.932-.31-8.924,1.873-17.841,5.963-25.762,2.1-4.067,4.67-7.899,7.687-11.343,1.957-2.234,4.058-4.287,6.162-6.345-.324,1.628-.579,3.272-.799,4.924-.463,1.465-.61,2.95-.49,4.414-.066.738-.132,1.477-.186,2.216-.033.447.384.686.765.663,1.276,4.039,4.378,7.643,8,9.735,8.28,4.781,18.364,2.836,27.178.918,19.921-4.335,40.067-7.332,60.429-8.526,1.236-.072,2.478-.136,3.723-.192,1.658,1.05,3.805,1.686,5.479,2.36,2.287.921,4.586,1.814,6.896,2.678,2.31.863,4.646,1.632,7.002,2.36,1.61.497,3.487,1.221,5.299,1.558-3.904.694-7.782,2.402-11.358,3.856-4.028,1.637-8.522,3.185-11.925,5.968-2.79,2.282-4.343,5.976-2.629,9.397.652,1.302,1.626,2.332,2.763,3.18-6.01,1.835-11.653,5.2-12.372,12.109-.39,3.748,1.671,7.189,4.567,9.412,1.963,1.506,4.171,2.327,6.478,2.858-2.81.559-5.574,1.304-8.296,2.201-5.943,1.96-11.7,4.666-17.004,7.987-1.396.874-1.42,2.893,0,3.762,3.134,1.918,6.745,3.58,10.523,4.69-11.107,1.461-22.179,3.362-33.358,4.106Zm118.878-27.05c-1.041,9.795-4.665,19.404-9.704,27.825-4.25,7.102-10.082,14.145-17.992,17.127,1.155-6.496-2.191-13.399-7.324-17.377-6.9-5.348-16.168-6.359-24.614-6.491-3.262-.051-6.51.049-9.751.242-.171-.113-.363-.204-.594-.229-4.189-.449-8.31-.649-12.414-1.719-2.83-.738-5.544-1.765-8.141-3.06,4.124-2.319,8.396-4.317,12.871-5.927,2.773-.998,5.607-1.84,8.457-2.59,2.83-.744,5.733-1.242,8.418-2.399.748-.323.558-1.64-.232-1.776-1.114-.192-2.234-.243-3.356-.204-.077-.05-.154-.1-.253-.126-5.188-1.364-14.662-4.269-12.939-11.538,1.571-6.625,9.678-7.995,15.281-8.967,2.323-.403,1.867-3.618,0-4.264-2.107-.729-5.292-1.815-6.23-4.07-1.198-2.881,2.41-5.023,4.487-6.121,3.329-1.76,6.852-3.23,10.352-4.613,3.479-1.375,7.31-2.4,10.525-4.344.815-.493.668-1.774-.143-2.089.353-.403.458-1.01-.034-1.406-1.858-1.499-4.61-2.23-6.81-3.1-2.301-.909-4.595-1.831-6.905-2.715-1.431-.548-2.85-1.127-4.273-1.697,14.263.1,28.58,2.208,40.895,9.805,6.634,4.093,12.384,9.661,16.101,16.559,4.16,7.72,5.24,16.63,4.322,25.265Z"/>
  <path class="cls-7" d="m101.793,139.922c.037,2.81-.235,5.671-.604,8.456-.366,2.764-1.077,5.498-1.152,8.292-.019.709.952.931,1.303.353,1.519-2.504,1.976-5.462,2.24-8.333.271-2.957.073-5.832-.318-8.768-.121-.904-1.482-.977-1.469,0Z"/>
  <path class="cls-7" d="m94.062,145.685c-.745-1.707-1.363-3.677-2.895-4.84-.42-.319-.933.125-.963.553-.065.916.218,1.823.566,2.661.38.918.821,1.81,1.246,2.709.804,1.699,1.645,3.375,2.503,5.048.493.962,2.188.284,1.776-.749-.721-1.805-1.455-3.6-2.233-5.381Z"/>
  <path class="cls-7" d="m82.957,141.977c-.344-1.931-.41-3.891-.719-5.826-.081-.509-.801-.412-.937,0-.681,2.054-.477,4.198.052,6.268.523,2.047,1.366,4.011,2.476,5.807.41.664,1.402.08,1.044-.61-.923-1.773-1.565-3.671-1.916-5.639Z"/>
  <path class="cls-7" d="m112.378,75.555c-.143-.384-.316-.776-.511-1.138-.28-.518-.62-.986-1.007-1.428-.091-.123-.19-.237-.3-.342-.077-.089-.147-.183-.219-.276-.092-.071-.184-.142-.276-.213-.109-.046-.217-.091-.326-.137-.297-.082-.607-.049-.887.069-.224.095-.396.227-.545.42-.196.254-.263.504-.293.826-.004.042-.008.084-.012.126-.029.13-.048.267-.061.404-.049.303-.095.607-.099.915-.003.255.005.503.024.757.032.421.074.874.175,1.29.028.114.072.23.111.341.13.377.313.771.615,1.048.046.042.095.065.142.103.129.127.297.249.437.338.432.273,1.13.369,1.617.212.491-.159,1.028-.476,1.254-.964.085-.183.164-.369.237-.557.003-.02.005-.041.008-.061.075-.206.123-.419.114-.648.004-.236-.031-.473-.088-.702-.032-.128-.064-.256-.11-.379Z"/>
  <path class="cls-2" d="m97.956,301.105c3.124,1.918,6.743,3.583,10.519,4.693-11.11,1.46-22.185,3.354-33.355,4.101-16.273,1.086-33.741-.47-47.892-9.253-13.728-8.517-22.052-23.873-22.607-39.93-.145-4.041.229-8.082,1.062-12.027,3.462,10.471,10.531,19.784,20.037,25.418,13.764,8.155,30.87,8.553,46.625,5.79,11.376-1.99,22.438-5.489,33.729-7.914,2.437-.519,4.898-.989,7.383-1.387-.652,1.255-1.086,2.666-1.255,4.282-.386,3.752,1.677,7.19,4.572,9.422,1.966,1.496,4.174,2.316,6.478,2.859-2.811.555-5.573,1.303-8.3,2.196-5.947,1.954-11.701,4.669-16.997,7.986-1.399.881-1.423,2.895,0,3.764Z"/>
  <path class="cls-4" d="m166.295,327.802c1.158-6.49-2.183-13.402-7.322-17.371-6.9-5.356-16.165-6.357-24.609-6.49-3.269-.06-6.514.048-9.759.241-.169-.121-.362-.205-.591-.229-4.186-.458-8.312-.652-12.413-1.725-2.835-.736-5.549-1.761-8.143-3.064,4.126-2.316,8.396-4.307,12.872-5.923,2.775-1.001,5.609-1.834,8.456-2.594,2.835-.736,5.73-1.242,8.42-2.389.748-.326.555-1.641-.229-1.785-1.122-.193-2.232-.241-3.354-.205-.084-.048-.157-.096-.253-.121-5.187-1.363-14.669-4.27-12.944-11.545.483-2.051,1.592-3.595,3.064-4.777,7.021-.7,14.09-.603,20.966.881,11.291,2.437,22.1,9.084,27.384,19.35-8.625-4.077-18.348-5.815-27.854-4.958,9.59,2.425,20.351,5.754,24.67,14.657,2.497,5.151,2.364,11.484,5.766,16.093,1.616,2.183,3.896,3.74,6.442,4.729-3.028,3.124-6.526,5.706-10.568,7.226Z"/>
  <path class="cls-2" d="m77.955,123.352c-.241.024-.458.157-.591.458-.856,1.978-1.544,4.005-2.123,6.056-3.317-.085-6.635-.386-9.916-.953.217-1.653.35-3.293.483-4.958.41-.109.808-.265,1.158-.495.483-.326.688-1.086.193-1.532-.386-.338-.82-.579-1.291-.76-.314-.603-1.182-.76-1.809-.41-.881-.121-1.797-.145-2.63-.229-1.99-.217-3.969-.471-5.935-.796-1.966-.314-3.921-.688-5.863-1.122-1.049-.241-2.087-.495-3.136-.772-.06-.012-.121-.024-.193-.036.121-.121.241-.229.362-.35.929-.893,1.93-1.894,2.28-3.173.181-.627-.338-1.508-1.086-1.424-.338.048-.663.121-.965.229-.869-.47-1.797-.82-2.702-1.206-1.327-.555-2.666-1.074-3.981-1.653-1.013-.446-2.015-.905-3.028-1.375,2.799-1.037,5.368-2.738,7.045-5.042,1.809-2.485,2.063-5.754.893-8.469-.277-4.488-1.351-8.951-1.846-13.402-.579-5.332-.543-10.736.652-15.972,1.134-4.91,3.004-9.518,6.623-13.113,2.111-2.111,4.729-3.848,7.54-5.031-2.907,5.489-5.067,11.412-5.658,17.588-.615,6.575.651,13.439,4.307,18.94,2.244,3.39,5.26,6.104,8.698,8.263-.205.096-.398.205-.603.302-1.653.845-3.233,1.894-4.982,2.509-.603.217-.893,1.182-.205,1.508,4.21,2.015,8.601,3.378,13.173,4.077-1.291.977-2.678,1.87-3.993,2.811-1.472,1.049-3.124,1.966-4.391,3.269-.603.072-.941.591-.856,1.086-.422,1.074.82,2.099,1.87,1.906.338-.06.675-.169,1.001-.302,2.726,1.049,5.477,2.039,8.215,3.064,2.714,1.013,5.38,2.147,8.058,3.257-.748,1.062-1.496,2.135-2.208,3.221-.832,1.242-1.954,2.594-2.557,4.029Z"/>
  <path class="cls-2" d="m115.918,118.369c.579.603,1.146,1.206,1.665,1.846-3.317,1.496-6.683,2.871-10.121,4.077-.446-.639-.905-1.267-1.375-1.882.507.157,1.013.35,1.472.567.784.386,2.003.121,2.196-.893.253-1.375.133-2.69-.229-3.921.41-.048.832-.109,1.242-.205.591-.133,1.182-.253,1.773-.41.555-.145,1.098-.302,1.629-.507.084-.036.157-.072.229-.109.519.458,1.025.929,1.52,1.436Z"/>
  <path class="cls-4" d="m148.948,86.848c-.736,1.255-1.592,2.449-2.545,3.523-3.004,3.378-6.816,5.971-10.592,8.396-4.005,2.557-8.082,5.018-12.329,7.142-2.22,1.11-4.488,2.099-6.755,3.112-.362.157-.736.314-1.098.471-.157-.012-.302-.012-.434.012-1.894.314-3.571,1.062-5.32,1.785-1.689.712-3.39,1.375-5.006,2.208-.989.495-.736,1.737,0,2.292,1.206.917,1.882,2.509,2.027,4.077-1.146-.121-2.256-.024-3.498.181-.844.145-.893,1.194-.458,1.725.856,1.037,1.629,2.135,2.316,3.281-1.834.615-3.679,1.17-5.537,1.677-7.105,1.93-14.464,3.076-21.799,3.149.35-1.665.7-3.342,1.038-5.006,1.484-.905,2.654-2.57,3.8-3.812,1.339-1.472,2.642-2.992,3.957-4.5.688-.784.748-2.292-.362-2.811-3.426-1.58-7.045-2.811-10.64-3.969-2.099-.675-4.198-1.279-6.333-1.785.663-.519,1.291-1.074,1.87-1.58,1.894-1.617,3.342-3.607,5.03-5.392.7-.736.169-1.846-.784-1.906-4.114-.277-8.155-1.11-12.039-2.461.808-.109,1.605-.241,2.401-.483,1.182-.35,2.364-.844,3.51-1.387,3.161,1.544,6.538,2.726,9.904,3.643,23.439,6.381,49.46,1.749,69.678-11.581Z"/>
  <path class="cls-3" d="m29.573,220.573s3.49-14.928,10.081-19.387c6.592-4.459,13.377-2.908,13.377-2.908,0,0-16.092,3.878-23.459,22.296Z"/>
</svg>